<?xml version="1.0" encoding="utf-8"?>
<svg xmlns="http://www.w3.org/2000/svg" viewBox="0 0 500 500" xmlns:bx="https://boxy-svg.com" width="500px" height="500px"><defs><bx:export><bx:file format="svg" path="Sem título.svg"/></bx:export></defs><g fill="#5c2d91" transform="matrix(1, 0, 0, 1, 39.102413, 51.963631)"><rect width="500.662" height="500.661" fill="#242938" rx="60" x="-38.989" y="-51.85" style="stroke-width: 1;"/><path d="M 128.502 391.741 C 69.153 381.809 24.721 344.042 5.679 287.609 C -1.515 266.433 -5.429 237.398 -3.419 220.153 C -0.351 194.174 3.775 177.911 11.92 160.336 C 33.289 114.165 73.384 81.745 122.472 71.157 C 131.146 69.302 138.764 68.866 176.954 68.103 C 212.5 67.448 222.974 66.901 229.32 65.373 C 255.874 59.261 278.302 47.144 297.451 28.59 C 304.114 22.258 306.655 20.294 307.183 21.493 C 307.501 22.366 306.971 27.497 306.124 32.955 C 303.268 49.983 296.921 67.883 288.987 81.418 C 283.169 91.351 284.861 91.897 301.788 86.112 C 341.776 72.25 368.33 48.563 390.229 7.304 C 392.345 3.264 394.567 0.427 395.519 0.427 C 396.788 0.427 398.692 3.701 401.761 10.796 C 410.541 31.536 414.667 47.691 416.571 69.302 C 417.206 76.179 417.947 83.383 418.37 85.348 C 419.851 94.298 414.56 137.632 409.588 155.643 C 384.093 249.406 304.962 321.12 210.278 336.074 C 193.247 338.803 159.392 339.458 145.851 337.273 C 109.142 331.489 76.876 308.021 61.748 276.149 C 54.765 261.521 52.545 252.462 51.908 235.653 C 51.275 218.734 53.39 206.071 59.314 191.009 C 67.143 171.143 84.069 150.949 102.159 139.707 C 112.105 133.594 127.973 127.7 139.398 125.845 C 158.123 122.898 181.397 126.281 199.171 134.577 C 221.175 144.836 241.909 167.213 251.431 190.9 C 259.048 209.674 261.481 235.762 256.933 248.315 C 252.702 259.666 243.602 265.779 233.34 264.033 C 227.31 262.94 223.926 261.084 220.011 256.501 C 214.722 250.279 214.193 247.004 213.559 213.275 C 212.818 178.347 212.712 177.474 204.777 170.052 C 196.843 162.738 195.784 162.52 166.904 162.52 C 138.975 162.52 134.533 163.173 123 168.522 C 105.122 176.819 91.158 194.394 86.396 214.367 C 84.387 222.773 84.598 238.6 86.926 246.567 C 95.283 275.602 120.99 296.232 148.92 296.232 C 164.47 296.232 181.291 289.357 192.611 278.44 L 198.535 272.765 L 200.44 275.929 C 203.613 281.17 214.087 288.375 222.127 290.883 C 232.706 294.267 247.41 293.504 255.98 289.247 C 268.358 283.135 277.667 271.782 282.957 256.172 C 285.601 248.424 285.813 246.24 285.813 232.379 C 285.813 178.893 257.462 132.284 210.808 108.926 C 175.684 91.351 134.533 91.244 99.409 108.489 C 83.964 116.13 74.76 122.788 62.594 135.231 C 43.235 155.207 31.491 177.474 25.568 206.181 C 23.133 218.188 23.133 244.495 25.568 256.392 C 37.098 311.622 76.134 351.464 131.253 364.017 C 143.948 366.964 179.917 368.055 198.219 366.2 C 223.503 363.471 251.855 356.484 273.753 347.535 C 286.237 342.405 307.183 331.817 315.328 326.469 C 324.109 320.684 324.322 320.684 318.715 326.795 C 311.309 334.763 295.229 348.517 284.861 355.721 C 259.683 373.187 228.791 385.193 195.468 390.65 C 179.811 393.16 140.879 393.816 128.502 391.741 Z" style=""/><path d="M 137.389 266.106 C 127.338 262.394 118.98 254.536 114.749 245.148 C 111.469 237.727 111.469 220.372 114.749 213.058 C 117.923 205.854 125.539 197.885 132.734 194.065 L 138.869 190.9 L 162.99 190.572 L 187.11 190.244 L 186.793 215.133 L 186.475 240.018 L 183.302 246.35 C 179.811 253.663 172.51 260.976 165.105 264.578 C 158.44 267.962 144.264 268.725 137.389 266.106 Z" style=""/></g></svg>