<?xml version="1.0" encoding="utf-8"?>
<svg xmlns="http://www.w3.org/2000/svg" viewBox="0 0 500 500" xmlns:bx="https://boxy-svg.com" width="500px" height="500px"><defs><bx:export><bx:file format="svg" path="Sem título.svg"/></bx:export></defs><g fill="#5c2d91" transform="matrix(0.972001, 0, 0, 0.982344, 38.359512, 59.400856)" style=""><rect fill="#242938" style="stroke-width: 1.023;" x="-37.517" y="-57.636" width="509.259" height="503.897" rx="102.335" ry="102.335"/><path d="M 132.927 391.528 C 72.993 381.512 28.118 343.424 8.89 286.507 C 1.624 265.152 -2.329 235.869 -0.3 218.479 C 2.799 192.274 6.965 175.877 15.194 158.152 C 36.773 111.587 77.265 78.891 126.839 68.212 C 135.599 66.342 143.291 65.901 181.859 65.133 C 217.759 64.469 228.333 63.919 234.745 62.377 C 261.563 56.215 284.21 43.993 303.552 25.279 C 310.278 18.895 312.846 16.914 313.377 18.125 C 313.699 19.006 313.166 24.185 312.31 29.685 C 309.426 46.854 303.015 64.911 295.002 78.562 C 289.129 88.578 290.835 89.131 307.928 83.295 C 348.314 69.314 375.128 45.425 397.248 3.814 C 399.384 -0.261 401.625 -3.121 402.588 -3.121 C 403.869 -3.121 405.793 0.181 408.895 7.334 C 417.758 28.251 421.926 44.546 423.851 66.342 C 424.489 73.277 425.236 80.542 425.665 82.525 C 427.162 91.551 421.819 135.25 416.799 153.416 C 391.051 247.978 311.135 320.305 215.514 335.385 C 198.314 338.14 164.126 338.802 150.447 336.598 C 113.376 330.763 80.787 307.095 65.513 274.952 C 58.46 260.2 56.22 251.06 55.576 234.11 C 54.936 217.046 57.073 204.278 63.054 189.086 C 70.964 169.047 88.054 148.686 106.323 137.349 C 116.368 131.183 132.398 125.235 143.933 123.367 C 162.843 120.393 186.347 123.805 204.295 132.173 C 226.521 142.523 247.459 165.085 257.075 188.977 C 264.763 207.908 267.225 234.221 262.632 246.88 C 258.359 258.327 249.167 264.493 238.806 262.731 C 232.715 261.629 229.299 259.758 225.343 255.139 C 220.002 248.862 219.469 245.556 218.827 211.541 C 218.08 176.316 217.971 175.432 209.959 167.95 C 201.945 160.572 200.878 160.354 171.71 160.354 C 143.505 160.354 139.02 161.013 127.371 166.408 C 109.317 174.774 95.215 192.502 90.405 212.642 C 88.378 221.119 88.589 237.084 90.94 245.117 C 99.381 274.396 125.342 295.207 153.55 295.207 C 169.254 295.207 186.242 288.271 197.671 277.261 L 203.656 271.539 L 205.578 274.727 C 208.78 280.015 219.36 287.281 227.478 289.813 C 238.164 293.226 253.013 292.455 261.669 288.161 C 274.167 281.999 283.573 270.543 288.911 254.809 C 291.582 246.987 291.796 244.789 291.796 230.808 C 291.796 176.867 263.162 129.862 216.047 106.302 C 180.58 88.578 139.02 88.467 103.545 105.863 C 87.948 113.569 78.656 120.282 66.37 132.83 C 46.817 152.978 34.955 175.432 28.976 204.386 C 26.515 216.499 26.515 243.029 28.976 255.026 C 40.619 310.726 80.042 350.909 135.707 363.569 C 148.527 366.542 184.852 367.642 203.333 365.77 C 228.869 363.019 257.504 355.973 279.619 346.948 C 292.224 341.772 313.377 331.092 321.604 325.704 C 330.473 319.868 330.687 319.868 325.024 326.033 C 317.544 334.067 301.306 347.936 290.835 355.201 C 265.408 372.815 234.212 384.924 200.555 390.429 C 184.745 392.959 145.427 393.624 132.927 391.528 Z" style=""/><path d="M 141.904 264.824 C 131.753 261.08 123.311 253.155 119.04 243.686 C 115.727 236.201 115.727 218.698 119.04 211.322 C 122.244 204.057 129.932 196.021 137.202 192.169 L 143.398 188.977 L 167.758 188.644 L 192.12 188.314 L 191.794 213.414 L 191.477 238.512 L 188.271 244.896 C 184.745 252.273 177.373 259.648 169.893 263.282 C 163.163 266.693 148.847 267.462 141.904 264.824 Z" style=""/></g></svg>